# xmcd
#
# Track frame offsets: 
#        150
#        17377
#        27851
#        55707
#        71982
#        86646
#        116674
#        125728
#        155428
#        182866
#        200924
#        220229
#        233804
#        250678
#        266575
#        284452
#        303003
#
# Disc length: 4464 seconds
#
# Revision: 0
# Processed by: cddbd v1.5.1PL0 Copyright (c) Steve Scherf et al.
# Submitted via: ExactAudioCopy v0.95a5
#
DISCID=f4116e11
DTITLE=Michael Charles - Recall
DYEAR=2003
DGENRE=Blues
TTITLE0=Work So Hard
TTITLE1=Passion Without Love
TTITLE2=So Much Of Me In You
TTITLE3=Started Again
TTITLE4=Picture In My Head
TTITLE5=My Shadow
TTITLE6=Interview (Excerpt)
TTITLE7=Crawling On The Floor (Live)
TTITLE8=Hard Days And Long Nights (Parts 1, 2 and 3)
TTITLE9=She's My Woman
TTITLE10=Long Way To Go
TTITLE11=Sunshine Lady
TTITLE12=Miss My Kiss
TTITLE13=My Lady
TTITLE14=Without Your Love (For Company)
TTITLE15=Play A Simple Tune
TTITLE16=Play A Simple Tune - Theme From Come Melodia
EXTD=Compilation Advance Copy (Lucky me]\n\n\n\nJWB - June 2004\n\n
EXTT0=
EXTT1=
EXTT2=
EXTT3=
EXTT4=
EXTT5=
EXTT6=
EXTT7=
EXTT8=
EXTT9=
EXTT10=
EXTT11=
EXTT12=
EXTT13=
EXTT14=
EXTT15=
EXTT16=
PLAYORDER=
